<?xml version="1.0" encoding="UTF-8" standalone="no"?>
<!-- Created with Inkscape (http://www.inkscape.org/) -->

<svg
   width="210mm"
   height="297mm"
   viewBox="0 0 210 297"
   version="1.1"
   id="svg10324"
   inkscape:version="1.1.2 (0a00cf5339, 2022-02-04, custom)"
   sodipodi:docname="smartchime_v2-right-front-2.svg"
   xmlns:inkscape="http://www.inkscape.org/namespaces/inkscape"
   xmlns:sodipodi="http://sodipodi.sourceforge.net/DTD/sodipodi-0.dtd"
   xmlns="http://www.w3.org/2000/svg"
   xmlns:svg="http://www.w3.org/2000/svg">
  <sodipodi:namedview
     id="namedview10326"
     pagecolor="#ffffff"
     bordercolor="#666666"
     borderopacity="1.0"
     inkscape:pageshadow="2"
     inkscape:pageopacity="0.0"
     inkscape:pagecheckerboard="0"
     inkscape:document-units="mm"
     showgrid="false"
     inkscape:zoom="1.5554293"
     inkscape:cx="627.15805"
     inkscape:cy="338.1703"
     inkscape:window-width="3840"
     inkscape:window-height="1537"
     inkscape:window-x="-8"
     inkscape:window-y="-8"
     inkscape:window-maximized="1"
     inkscape:current-layer="layer1" />
  <defs
     id="defs10321">
    <rect
       x="-361.95795"
       y="20.573098"
       width="223.73245"
       height="59.147658"
       id="rect42853" />
    <linearGradient
       id="linearGradient4671">
      <stop
         id="stop4673"
         offset="0"
         style="stop-color:#ffc836;stop-opacity:1;" />
      <stop
         id="stop4675"
         offset="1"
         style="stop-color:#ffe873;stop-opacity:1;" />
    </linearGradient>
    <clipPath
       clipPathUnits="userSpaceOnUse"
       id="clipPath22926">
      <path
         d="M 0,566 H 800 V 0 H 0 Z"
         id="path22924" />
    </clipPath>
  </defs>
  <g
     inkscape:label="Layer 1"
     inkscape:groupmode="layer"
     id="layer1">
    <g
       id="g10443"
       transform="translate(132.10166,-61.5696)">
      <path
         style="fill:none;stroke:#000000;stroke-width:0.01;stroke-linecap:butt;stroke-linejoin:miter;stroke-miterlimit:4;stroke-dasharray:none;stroke-opacity:1"
         d="m -82.89686,226.67459 v 6.35"
         id="path104-9-3-47-0-3-1-3-78-0-5"
         sodipodi:nodetypes="cc" />
      <path
         style="fill:none;stroke:#000000;stroke-width:0.01;stroke-linecap:butt;stroke-linejoin:miter;stroke-miterlimit:4;stroke-dasharray:none;stroke-opacity:1"
         d="m -95.59686,226.67459 v 6.35"
         id="path104-9-3-47-6-50-2-2-04-8-8-8"
         sodipodi:nodetypes="cc" />
      <path
         style="fill:none;stroke:#000000;stroke-width:0.01;stroke-linecap:butt;stroke-linejoin:miter;stroke-miterlimit:4;stroke-dasharray:none;stroke-opacity:1"
         d="m -82.89686,233.02459 h -12.7"
         id="path104-9-3-47-5-3-5-4-94-7-8-4"
         sodipodi:nodetypes="cc" />
      <path
         style="fill:none;stroke:#000000;stroke-width:0.01;stroke-linecap:butt;stroke-linejoin:miter;stroke-miterlimit:4;stroke-dasharray:none;stroke-opacity:1"
         d="m -44.79686,226.67459 v 6.35"
         id="path104-9-3-47-0-3-1-3-78-3-4-5"
         sodipodi:nodetypes="cc" />
      <path
         style="fill:none;stroke:#000000;stroke-width:0.01;stroke-linecap:butt;stroke-linejoin:miter;stroke-miterlimit:4;stroke-dasharray:none;stroke-opacity:1"
         d="m -57.49686,226.67459 v 6.35"
         id="path104-9-3-47-6-50-2-2-04-8-6-2-3"
         sodipodi:nodetypes="cc" />
      <path
         style="fill:none;stroke:#000000;stroke-width:0.01;stroke-linecap:butt;stroke-linejoin:miter;stroke-miterlimit:4;stroke-dasharray:none;stroke-opacity:1"
         d="m -44.79686,233.02459 h -12.7"
         id="path104-9-3-47-5-3-5-4-94-7-3-7-9"
         sodipodi:nodetypes="cc" />
      <path
         style="fill:none;stroke:#000000;stroke-width:0.00999998;stroke-linecap:butt;stroke-linejoin:miter;stroke-miterlimit:4;stroke-dasharray:none;stroke-opacity:1"
         d="m -95.59686,226.67459 h -36.4998"
         id="path104-9-8-6-8-2-9-8-50-3-5-7"
         sodipodi:nodetypes="cc" />
      <path
         style="fill:none;stroke:#000000;stroke-width:0.01;stroke-linecap:butt;stroke-linejoin:miter;stroke-miterlimit:4;stroke-dasharray:none;stroke-opacity:1"
         d="m -8.27166,226.67459 h -36.5252"
         id="path104-9-8-6-8-2-9-8-50-3-2-0-2"
         sodipodi:nodetypes="cc" />
      <path
         style="fill:none;stroke:#000000;stroke-width:0.01;stroke-linecap:butt;stroke-linejoin:miter;stroke-miterlimit:4;stroke-dasharray:none;stroke-opacity:1"
         d="m -57.49686,226.67459 h -25.4"
         id="path104-9-8-6-8-2-9-8-50-3-0-9-5"
         sodipodi:nodetypes="cc" />
      <path
         style="fill:none;stroke:#000000;stroke-width:0.01;stroke-linecap:butt;stroke-linejoin:miter;stroke-miterlimit:4;stroke-dasharray:none;stroke-opacity:1"
         d="m -57.47146,67.9246 v -6.35"
         id="path104-9-3-47-0-3-1-3-78-0-5-0"
         sodipodi:nodetypes="cc" />
      <path
         style="fill:none;stroke:#000000;stroke-width:0.01;stroke-linecap:butt;stroke-linejoin:miter;stroke-miterlimit:4;stroke-dasharray:none;stroke-opacity:1"
         d="m -44.77146,67.9246 v -6.35"
         id="path104-9-3-47-6-50-2-2-04-8-8-8-8"
         sodipodi:nodetypes="cc" />
      <path
         style="fill:none;stroke:#000000;stroke-width:0.01;stroke-linecap:butt;stroke-linejoin:miter;stroke-miterlimit:4;stroke-dasharray:none;stroke-opacity:1"
         d="m -57.47146,61.5746 h 12.7"
         id="path104-9-3-47-5-3-5-4-94-7-8-4-9"
         sodipodi:nodetypes="cc" />
      <path
         style="fill:none;stroke:#000000;stroke-width:0.01;stroke-linecap:butt;stroke-linejoin:miter;stroke-miterlimit:4;stroke-dasharray:none;stroke-opacity:1"
         d="m -95.57146,67.9246 v -6.35"
         id="path104-9-3-47-0-3-1-3-78-3-4-5-5"
         sodipodi:nodetypes="cc" />
      <path
         style="fill:none;stroke:#000000;stroke-width:0.01;stroke-linecap:butt;stroke-linejoin:miter;stroke-miterlimit:4;stroke-dasharray:none;stroke-opacity:1"
         d="m -82.87146,67.9246 v -6.35"
         id="path104-9-3-47-6-50-2-2-04-8-6-2-3-7"
         sodipodi:nodetypes="cc" />
      <path
         style="fill:none;stroke:#000000;stroke-width:0.01;stroke-linecap:butt;stroke-linejoin:miter;stroke-miterlimit:4;stroke-dasharray:none;stroke-opacity:1"
         d="m -95.57146,61.5746 h 12.7"
         id="path104-9-3-47-5-3-5-4-94-7-3-7-9-4"
         sodipodi:nodetypes="cc" />
      <path
         style="fill:none;stroke:#000000;stroke-width:0.00999998;stroke-linecap:butt;stroke-linejoin:miter;stroke-miterlimit:4;stroke-dasharray:none;stroke-opacity:1"
         d="m -44.77146,67.9246 h 36.4998"
         id="path104-9-8-6-8-2-9-8-50-3-5-7-8"
         sodipodi:nodetypes="cc" />
      <path
         style="fill:none;stroke:#000000;stroke-width:0.01;stroke-linecap:butt;stroke-linejoin:miter;stroke-miterlimit:4;stroke-dasharray:none;stroke-opacity:1"
         d="m -132.09666,67.9246 h 36.5252"
         id="path104-9-8-6-8-2-9-8-50-3-2-0-2-3"
         sodipodi:nodetypes="cc" />
      <path
         style="fill:none;stroke:#000000;stroke-width:0.01;stroke-linecap:butt;stroke-linejoin:miter;stroke-miterlimit:4;stroke-dasharray:none;stroke-opacity:1"
         d="m -82.87146,67.9246 h 25.4"
         id="path104-9-8-6-8-2-9-8-50-3-0-9-5-3"
         sodipodi:nodetypes="cc" />
      <path
         style="fill:none;stroke:#000000;stroke-width:0.01;stroke-linecap:butt;stroke-linejoin:miter;stroke-miterlimit:4;stroke-dasharray:none;stroke-opacity:1"
         d="m -8.27166,207.62459 h -6.35"
         id="path104-9-3-47-0-3-1-7-1-2"
         sodipodi:nodetypes="cc" />
      <path
         style="fill:none;stroke:#000000;stroke-width:0.01;stroke-linecap:butt;stroke-linejoin:miter;stroke-miterlimit:4;stroke-dasharray:none;stroke-opacity:1"
         d="m -8.27166,194.92459 h -6.35"
         id="path104-9-3-47-6-50-2-2-3-1-9"
         sodipodi:nodetypes="cc" />
      <path
         style="fill:none;stroke:#000000;stroke-width:0.01;stroke-linecap:butt;stroke-linejoin:miter;stroke-miterlimit:4;stroke-dasharray:none;stroke-opacity:1"
         d="m -8.27166,144.1246 v 12.7"
         id="path104-9-8-6-1-9-3-6-0-6-3"
         sodipodi:nodetypes="cc" />
      <path
         style="fill:none;stroke:#000000;stroke-width:0.01;stroke-linecap:butt;stroke-linejoin:miter;stroke-miterlimit:4;stroke-dasharray:none;stroke-opacity:1"
         d="m -14.62166,207.62459 v -12.7"
         id="path104-9-3-47-5-3-5-4-6-7-3"
         sodipodi:nodetypes="cc" />
      <path
         style="fill:none;stroke:#000000;stroke-width:0.01;stroke-linecap:butt;stroke-linejoin:miter;stroke-miterlimit:4;stroke-dasharray:none;stroke-opacity:1"
         d="m -8.27166,169.52459 h -6.35"
         id="path104-9-3-47-3-87-3-7-7-7-6"
         sodipodi:nodetypes="cc" />
      <path
         style="fill:none;stroke:#000000;stroke-width:0.01;stroke-linecap:butt;stroke-linejoin:miter;stroke-miterlimit:4;stroke-dasharray:none;stroke-opacity:1"
         d="m -8.27166,156.82458 h -6.35"
         id="path104-9-3-47-6-3-30-6-2-3-8-5"
         sodipodi:nodetypes="cc" />
      <path
         style="fill:none;stroke:#000000;stroke-width:0.01;stroke-linecap:butt;stroke-linejoin:miter;stroke-miterlimit:4;stroke-dasharray:none;stroke-opacity:1"
         d="m -8.27166,169.52459 v 25.4"
         id="path104-9-8-6-8-2-9-8-52-9-1"
         sodipodi:nodetypes="cc" />
      <path
         style="fill:none;stroke:#000000;stroke-width:0.01;stroke-linecap:butt;stroke-linejoin:miter;stroke-miterlimit:4;stroke-dasharray:none;stroke-opacity:1"
         d="M -14.62166,169.52459 V 156.82458"
         id="path104-9-3-47-5-8-10-3-6-1-2-4"
         sodipodi:nodetypes="cc" />
      <path
         style="fill:none;stroke:#000000;stroke-width:0.01;stroke-linecap:butt;stroke-linejoin:miter;stroke-miterlimit:4;stroke-dasharray:none;stroke-opacity:1"
         d="m -8.27166,131.4246 h -6.35"
         id="path104-9-3-47-4-76-8-2-8-3"
         sodipodi:nodetypes="cc" />
      <path
         style="fill:none;stroke:#000000;stroke-width:0.01;stroke-linecap:butt;stroke-linejoin:miter;stroke-miterlimit:4;stroke-dasharray:none;stroke-opacity:1"
         d="m -8.27166,118.72462 h -6.35"
         id="path104-9-3-47-6-07-2-9-3-0-0"
         sodipodi:nodetypes="cc" />
      <path
         style="fill:none;stroke:#000000;stroke-width:0.01;stroke-linecap:butt;stroke-linejoin:miter;stroke-miterlimit:4;stroke-dasharray:none;stroke-opacity:1"
         d="m -8.27166,131.4246 v 12.7"
         id="path104-9-8-6-82-8-6-6-0-1"
         sodipodi:nodetypes="cc" />
      <path
         style="fill:none;stroke:#000000;stroke-width:0.01;stroke-linecap:butt;stroke-linejoin:miter;stroke-miterlimit:4;stroke-dasharray:none;stroke-opacity:1"
         d="m -8.27166,213.97459 v 12.7"
         id="path104-9-8-6-1-9-3-6-8-7-1-3"
         sodipodi:nodetypes="cc" />
      <path
         style="fill:none;stroke:#000000;stroke-width:0.01;stroke-linecap:butt;stroke-linejoin:miter;stroke-miterlimit:4;stroke-dasharray:none;stroke-opacity:1"
         d="m -8.27166,207.62459 v 6.35"
         id="path104-9-8-6-82-8-6-3-3-3-7"
         sodipodi:nodetypes="cc" />
      <path
         style="fill:none;stroke:#000000;stroke-width:0.01;stroke-linecap:butt;stroke-linejoin:miter;stroke-miterlimit:4;stroke-dasharray:none;stroke-opacity:1"
         d="M -14.62166,131.4246 V 118.72462"
         id="path104-9-3-47-5-1-9-0-2-6-9"
         sodipodi:nodetypes="cc" />
      <path
         style="fill:none;stroke:#000000;stroke-width:0.01;stroke-linecap:butt;stroke-linejoin:miter;stroke-miterlimit:4;stroke-dasharray:none;stroke-opacity:1"
         d="m -8.27166,93.324595 h -6.35"
         id="path104-9-3-47-3-2-5-3-7-3-7"
         sodipodi:nodetypes="cc" />
      <path
         style="fill:none;stroke:#000000;stroke-width:0.01;stroke-linecap:butt;stroke-linejoin:miter;stroke-miterlimit:4;stroke-dasharray:none;stroke-opacity:1"
         d="M -8.27166,93.324595 V 118.72462"
         id="path104-9-8-6-8-4-91-6-9-2-9"
         sodipodi:nodetypes="cc" />
      <path
         style="fill:none;stroke:#000000;stroke-width:0.01;stroke-linecap:butt;stroke-linejoin:miter;stroke-miterlimit:4;stroke-dasharray:none;stroke-opacity:1"
         d="M -14.62166,93.324595 V 80.6246"
         id="path104-9-3-47-5-8-8-1-8-9-8-6"
         sodipodi:nodetypes="cc" />
      <path
         style="fill:none;stroke:#000000;stroke-width:0.01;stroke-linecap:butt;stroke-linejoin:miter;stroke-miterlimit:4;stroke-dasharray:none;stroke-opacity:1"
         d="m -132.09666,207.62459 h 6.35"
         id="path104-9-3-47-0-3-1-7-1-2-2"
         sodipodi:nodetypes="cc" />
      <path
         style="fill:none;stroke:#000000;stroke-width:0.01;stroke-linecap:butt;stroke-linejoin:miter;stroke-miterlimit:4;stroke-dasharray:none;stroke-opacity:1"
         d="m -132.09666,194.92459 h 6.35"
         id="path104-9-3-47-6-50-2-2-3-1-9-5"
         sodipodi:nodetypes="cc" />
      <path
         style="fill:none;stroke:#000000;stroke-width:0.01;stroke-linecap:butt;stroke-linejoin:miter;stroke-miterlimit:4;stroke-dasharray:none;stroke-opacity:1"
         d="m -132.09666,144.1246 v 12.7"
         id="path104-9-8-6-1-9-3-6-0-6-3-9"
         sodipodi:nodetypes="cc" />
      <path
         style="fill:none;stroke:#000000;stroke-width:0.01;stroke-linecap:butt;stroke-linejoin:miter;stroke-miterlimit:4;stroke-dasharray:none;stroke-opacity:1"
         d="m -125.74666,207.62459 v -12.7"
         id="path104-9-3-47-5-3-5-4-6-7-3-1"
         sodipodi:nodetypes="cc" />
      <path
         style="fill:none;stroke:#000000;stroke-width:0.01;stroke-linecap:butt;stroke-linejoin:miter;stroke-miterlimit:4;stroke-dasharray:none;stroke-opacity:1"
         d="m -132.09666,169.52459 h 6.35"
         id="path104-9-3-47-3-87-3-7-7-7-6-5"
         sodipodi:nodetypes="cc" />
      <path
         style="fill:none;stroke:#000000;stroke-width:0.01;stroke-linecap:butt;stroke-linejoin:miter;stroke-miterlimit:4;stroke-dasharray:none;stroke-opacity:1"
         d="m -132.09666,156.82458 h 6.35"
         id="path104-9-3-47-6-3-30-6-2-3-8-5-4"
         sodipodi:nodetypes="cc" />
      <path
         style="fill:none;stroke:#000000;stroke-width:0.01;stroke-linecap:butt;stroke-linejoin:miter;stroke-miterlimit:4;stroke-dasharray:none;stroke-opacity:1"
         d="m -132.09666,169.52459 v 25.4"
         id="path104-9-8-6-8-2-9-8-52-9-1-1"
         sodipodi:nodetypes="cc" />
      <path
         style="fill:none;stroke:#000000;stroke-width:0.01;stroke-linecap:butt;stroke-linejoin:miter;stroke-miterlimit:4;stroke-dasharray:none;stroke-opacity:1"
         d="M -125.74666,169.52459 V 156.82458"
         id="path104-9-3-47-5-8-10-3-6-1-2-4-6"
         sodipodi:nodetypes="cc" />
      <path
         style="fill:none;stroke:#000000;stroke-width:0.01;stroke-linecap:butt;stroke-linejoin:miter;stroke-miterlimit:4;stroke-dasharray:none;stroke-opacity:1"
         d="m -132.09666,131.4246 h 6.35"
         id="path104-9-3-47-4-76-8-2-8-3-7"
         sodipodi:nodetypes="cc" />
      <path
         style="fill:none;stroke:#000000;stroke-width:0.01;stroke-linecap:butt;stroke-linejoin:miter;stroke-miterlimit:4;stroke-dasharray:none;stroke-opacity:1"
         d="m -132.09666,118.72462 h 6.35"
         id="path104-9-3-47-6-07-2-9-3-0-0-1"
         sodipodi:nodetypes="cc" />
      <path
         style="fill:none;stroke:#000000;stroke-width:0.01;stroke-linecap:butt;stroke-linejoin:miter;stroke-miterlimit:4;stroke-dasharray:none;stroke-opacity:1"
         d="m -132.09666,80.6246 h 6.35"
         id="path104-9-3-47-6-07-2-9-3-0-0-1-3"
         sodipodi:nodetypes="cc" />
      <path
         style="fill:none;stroke:#000000;stroke-width:0.01;stroke-linecap:butt;stroke-linejoin:miter;stroke-miterlimit:4;stroke-dasharray:none;stroke-opacity:1"
         d="m -132.09666,131.4246 v 12.7"
         id="path104-9-8-6-82-8-6-6-0-1-4"
         sodipodi:nodetypes="cc" />
      <path
         style="fill:none;stroke:#000000;stroke-width:0.01;stroke-linecap:butt;stroke-linejoin:miter;stroke-miterlimit:4;stroke-dasharray:none;stroke-opacity:1"
         d="m -132.09666,213.97459 v 12.7"
         id="path104-9-8-6-1-9-3-6-8-7-1-3-2"
         sodipodi:nodetypes="cc" />
      <path
         style="fill:none;stroke:#000000;stroke-width:0.01;stroke-linecap:butt;stroke-linejoin:miter;stroke-miterlimit:4;stroke-dasharray:none;stroke-opacity:1"
         d="m -132.09666,207.62459 v 6.35"
         id="path104-9-8-6-82-8-6-3-3-3-7-3"
         sodipodi:nodetypes="cc" />
      <path
         style="fill:none;stroke:#000000;stroke-width:0.01;stroke-linecap:butt;stroke-linejoin:miter;stroke-miterlimit:4;stroke-dasharray:none;stroke-opacity:1"
         d="M -125.74666,131.4246 V 118.72462"
         id="path104-9-3-47-5-1-9-0-2-6-9-1"
         sodipodi:nodetypes="cc" />
      <path
         style="fill:none;stroke:#000000;stroke-width:0.01;stroke-linecap:butt;stroke-linejoin:miter;stroke-miterlimit:4;stroke-dasharray:none;stroke-opacity:1"
         d="m -132.09666,93.324595 h 6.35"
         id="path104-9-3-47-3-2-5-3-7-3-7-6"
         sodipodi:nodetypes="cc" />
      <path
         style="fill:none;stroke:#000000;stroke-width:0.01;stroke-linecap:butt;stroke-linejoin:miter;stroke-miterlimit:4;stroke-dasharray:none;stroke-opacity:1"
         d="M -132.09666,93.324595 V 118.72462"
         id="path104-9-8-6-8-4-91-6-9-2-9-8"
         sodipodi:nodetypes="cc" />
      <path
         style="fill:none;stroke:#000000;stroke-width:0.00999999;stroke-linecap:butt;stroke-linejoin:miter;stroke-miterlimit:4;stroke-dasharray:none;stroke-opacity:1"
         d="m -132.09666,67.9246 v 12.7"
         id="path104-9-8-6-8-4-91-6-9-2-9-8-5"
         sodipodi:nodetypes="cc" />
      <path
         style="fill:none;stroke:#000000;stroke-width:0.01;stroke-linecap:butt;stroke-linejoin:miter;stroke-miterlimit:4;stroke-dasharray:none;stroke-opacity:1"
         d="M -125.74666,93.324595 V 80.6246"
         id="path104-9-3-47-5-8-8-1-8-9-8-6-4"
         sodipodi:nodetypes="cc" />
      <path
         style="fill:none;stroke:#000000;stroke-width:0.01;stroke-linecap:butt;stroke-linejoin:miter;stroke-miterlimit:4;stroke-dasharray:none;stroke-opacity:1"
         d="m -14.62166,80.62459 h 6.35"
         id="path104-9-3-47-6-07-2-9-3-0-0-1-8"
         sodipodi:nodetypes="cc" />
      <path
         style="fill:none;stroke:#000000;stroke-width:0.00999999;stroke-linecap:butt;stroke-linejoin:miter;stroke-miterlimit:4;stroke-dasharray:none;stroke-opacity:1"
         d="m -8.27166,67.92459 v 12.7"
         id="path104-9-8-6-8-4-91-6-9-2-9-8-9"
         sodipodi:nodetypes="cc" />
      <ellipse
         style="fill:none;fill-opacity:1;stroke:#000000;stroke-width:0.01;stroke-miterlimit:4;stroke-dasharray:none;stroke-opacity:1"
         id="path19072"
         cx="-70.189163"
         cy="197.97101"
         rx="12.695"
         ry="12.7" />
      <circle
         style="fill:#ffffff;fill-opacity:1;stroke:#000000;stroke-width:0.01;stroke-miterlimit:4;stroke-dasharray:none;stroke-opacity:1"
         id="path19072-4"
         cx="-70.184158"
         cy="125.57137"
         r="40" />
    </g>
    <g
       aria-label="smartchime"
       id="text617"
       style="font-size:5.64444px;line-height:1.25;fill:#00ff00;stroke-width:0.264583"
       transform="translate(0,1.5734534)">
      <path
         d="m 8.4184356,12.910516 c 0.6999106,0 1.0667992,-0.366888 1.0667992,-0.824088 0,-1.061155 -1.6876876,-0.671688 -1.6876876,-1.264355 0,-0.242711 0.231422,-0.428977 0.6039551,-0.428977 0.3555997,0 0.6491106,0.146755 0.8127993,0.344311 L 9.4118571,10.443896 C 9.1973683,10.223763 8.8699908,10.048785 8.4015023,10.048785 c -0.6491107,0 -1.0103548,0.3556 -1.0103548,0.784577 0,1.010355 1.6876876,0.603955 1.6876876,1.264355 0,0.270933 -0.2314221,0.468488 -0.6491106,0.468488 -0.3725331,0 -0.7168439,-0.180622 -0.897466,-0.389466 l -0.2144888,0.3048 c 0.2765776,0.287866 0.6491107,0.428977 1.1006659,0.428977 z"
         style="font-family:'Proxima Nova';-inkscape-font-specification:'Proxima Nova'"
         id="path11146" />
      <path
         d="m 13.887899,12.842783 v -1.96991 c 0,-0.54751 -0.265289,-0.824088 -0.761999,-0.824088 -0.395111,0 -0.762,0.259644 -0.9144,0.508 -0.07902,-0.282222 -0.316088,-0.508 -0.728133,-0.508 -0.406399,0 -0.767643,0.287867 -0.886177,0.462844 v -0.395111 h -0.423333 v 2.726265 h 0.423333 v -1.992487 c 0.146756,-0.220134 0.440267,-0.423333 0.716844,-0.423333 0.361244,0 0.502355,0.220133 0.502355,0.564444 v 1.851376 h 0.423333 v -1.998132 c 0.141111,-0.220133 0.440267,-0.417688 0.722489,-0.417688 0.355599,0 0.502355,0.220133 0.502355,0.564444 v 1.851376 z"
         style="font-family:'Proxima Nova';-inkscape-font-specification:'Proxima Nova'"
         id="path11148" />
      <path
         d="m 16.862522,12.842783 v -1.873954 c 0,-0.6604 -0.474133,-0.920044 -1.05551,-0.920044 -0.445911,0 -0.795866,0.146756 -1.089377,0.451555 l 0.197555,0.293511 c 0.242711,-0.265288 0.508,-0.378177 0.835377,-0.378177 0.395111,0 0.688622,0.208844 0.688622,0.570088 v 0.491066 c -0.220133,-0.248355 -0.530577,-0.366888 -0.903111,-0.366888 -0.462844,0 -0.948265,0.282222 -0.948265,0.897466 0,0.592666 0.491066,0.90311 0.948265,0.90311 0.366889,0 0.682978,-0.129822 0.903111,-0.378177 v 0.310444 z m -1.168399,-0.237067 c -0.400755,0 -0.677333,-0.248355 -0.677333,-0.59831 0,-0.344311 0.276578,-0.592666 0.677333,-0.592666 0.293511,0 0.581377,0.112888 0.745066,0.333022 v 0.519288 c -0.163689,0.225778 -0.451555,0.338666 -0.745066,0.338666 z"
         style="font-family:'Proxima Nova';-inkscape-font-specification:'Proxima Nova'"
         id="path11150" />
      <path
         d="m 18.138165,12.842783 v -1.930399 c 0.124177,-0.220133 0.479777,-0.434621 0.745066,-0.434621 0.06209,0 0.112889,0.0056 0.163689,0.01129 V 10.05443 c -0.372533,0 -0.688622,0.214488 -0.908755,0.49671 v -0.434622 h -0.423333 v 2.726265 z"
         style="font-family:'Proxima Nova';-inkscape-font-specification:'Proxima Nova'"
         id="path11152" />
      <path
         d="m 20.271763,12.910516 c 0.242711,0 0.395111,-0.07338 0.502355,-0.174977 L 20.64994,12.413806 c -0.05644,0.06209 -0.163688,0.118533 -0.287866,0.118533 -0.180622,0 -0.270933,-0.146756 -0.270933,-0.349956 v -1.693332 h 0.553155 V 10.116518 H 20.091141 V 9.3714523 h -0.428978 v 0.7450657 h -0.451555 v 0.372533 h 0.451555 v 1.783644 c 0,0.406399 0.2032,0.637821 0.6096,0.637821 z"
         style="font-family:'Proxima Nova';-inkscape-font-specification:'Proxima Nova'"
         id="path11154" />
      <path
         d="m 22.439231,12.910516 c 0.496711,0 0.790222,-0.2032 0.999066,-0.474133 l -0.282222,-0.259644 c -0.180622,0.242711 -0.412044,0.3556 -0.694266,0.3556 -0.575733,0 -0.942621,-0.451555 -0.942621,-1.055511 0,-0.603955 0.366888,-1.049865 0.942621,-1.049865 0.282222,0 0.513644,0.1016 0.694266,0.349955 l 0.282222,-0.254 c -0.208844,-0.270933 -0.502355,-0.474133 -0.999066,-0.474133 -0.812799,0 -1.36031,0.620889 -1.36031,1.428043 0,0.807155 0.547511,1.433688 1.36031,1.433688 z"
         style="font-family:'Proxima Nova';-inkscape-font-specification:'Proxima Nova'"
         id="path11156" />
      <path
         d="m 26.305674,12.842783 v -1.924754 c 0,-0.592666 -0.299155,-0.869244 -0.869244,-0.869244 -0.412044,0 -0.784577,0.231422 -0.970844,0.462844 V 9.0779414 h -0.423333 v 3.7648416 h 0.423333 v -1.992487 c 0.158045,-0.220134 0.474133,-0.423333 0.801511,-0.423333 0.372533,0 0.615244,0.135466 0.615244,0.620888 v 1.794932 z"
         style="font-family:'Proxima Nova';-inkscape-font-specification:'Proxima Nova'"
         id="path11158" />
      <path
         d="m 27.36683,9.727052 c 0.158044,0 0.282222,-0.1241777 0.282222,-0.282222 0,-0.1580443 -0.124178,-0.2878665 -0.282222,-0.2878665 -0.158044,0 -0.287867,0.1298222 -0.287867,0.2878665 0,0.1580443 0.129823,0.282222 0.287867,0.282222 z m 0.208844,3.115731 v -2.726265 h -0.423333 v 2.726265 z"
         style="font-family:'Proxima Nova';-inkscape-font-specification:'Proxima Nova'"
         id="path11160" />
      <path
         d="m 32.136383,12.842783 v -1.96991 c 0,-0.54751 -0.265288,-0.824088 -0.761999,-0.824088 -0.395111,0 -0.762,0.259644 -0.914399,0.508 -0.07902,-0.282222 -0.316089,-0.508 -0.728133,-0.508 -0.4064,0 -0.767644,0.287867 -0.886177,0.462844 v -0.395111 h -0.423333 v 2.726265 h 0.423333 v -1.992487 c 0.146755,-0.220134 0.440266,-0.423333 0.716844,-0.423333 0.361244,0 0.502355,0.220133 0.502355,0.564444 v 1.851376 h 0.423333 v -1.998132 c 0.141111,-0.220133 0.440266,-0.417688 0.722488,-0.417688 0.3556,0 0.502355,0.220133 0.502355,0.564444 v 1.851376 z"
         style="font-family:'Proxima Nova';-inkscape-font-specification:'Proxima Nova'"
         id="path11162" />
      <path
         d="m 34.219185,12.910516 c 0.440266,0 0.807155,-0.1524 1.083732,-0.423333 l -0.203199,-0.276577 c -0.220134,0.225777 -0.530578,0.349955 -0.846666,0.349955 -0.587022,0 -0.942622,-0.428977 -0.976489,-0.942622 h 2.201332 v -0.107244 c 0,-0.818444 -0.485422,-1.46191 -1.30951,-1.46191 -0.778933,0 -1.343377,0.637822 -1.343377,1.428043 0,0.852311 0.581378,1.433688 1.394177,1.433688 z m 0.841022,-1.608665 h -1.789288 c 0.02258,-0.412044 0.310444,-0.903111 0.891822,-0.903111 0.620888,0 0.891821,0.502356 0.897466,0.903111 z"
         style="font-family:'Proxima Nova';-inkscape-font-specification:'Proxima Nova'"
         id="path11164" />
    </g>
    <g
       id="g6102"
       transform="matrix(0.02043472,0,0,0.02043472,107.17881,8.1102561)"
       style="fill:#00ff00;stroke-width:12.9477">
      <path
         d="m 404.1,235.4 -3.3,-5.7 c 0.1,-40.8 -18.8,-57.4 -40.9,-70 6.7,-1.8 13.5,-3.2 15.5,-11.6 11.5,-2.9 13.9,-8.3 15,-13.9 3,-2 13,-7.6 11.9,-17.3 5.6,-3.9 8.8,-8.9 7.1,-15.9 6.1,-6.6 7.6,-12 5.1,-17 7.3,-9.1 4,-13.7 1,-18.4 5.4,-9.8 0.6,-20.4 -14.6,-18.6 -6.1,-8.9 -19.2,-6.9 -21.3,-6.9 -2.3,-2.8 -5.3,-5.3 -14.5,-4.1 -6,-5.4 -12.7,-4.4 -19.6,-1.8 -8.2,-6.4 -13.6,-1.2 -19.9,0.7 -9.9,-3.2 -12.2,1.1 -17,3 -10.8,-2.3 -14.1,2.6 -19.3,7.8 l -6.1,-0.1 C 267,55 258.9,74.4 256,84.3 253.1,74.4 245,55 228.7,45.6 l -6.1,0.1 c -5.2,-5.2 -8.5,-10.1 -19.3,-7.8 -4.9,-1.8 -7.1,-6.2 -17,-3 -4,-1.2 -7.8,-3.9 -12.2,-3.8 -2.3,0.1 -4.8,0.9 -7.6,3.1 -6.9,-2.6 -13.6,-3.5 -19.6,1.8 -9.2,-1.1 -12.3,1.2 -14.5,4.1 -2,0 -15.2,-2 -21.3,6.9 -15.2,-1.8 -19.9,8.8 -14.5,18.6 -3.1,4.7 -6.3,9.4 1,18.4 -2.5,5 -1,10.5 5.1,17 -1.6,7 1.6,12 7.1,15.9 -1.1,9.7 9,15.3 11.9,17.3 1.1,5.6 3.5,10.9 15,13.9 1.9,8.3 8.8,9.8 15.5,11.6 -22.1,12.7 -40.9,29.3 -40.9,70 l -3.3,5.7 c -25.3,15.1 -48,63.9 -12.4,103.4 2.3,12.4 6.2,21.3 9.7,31.1 5.2,39.7 39.1,58.3 48,60.5 13.1,9.8 27.1,19.2 45.9,25.7 17.8,18.1 37.2,25 56.5,25 h 0.9 c 19.4,0 38.7,-6.9 56.4,-25 18.9,-6.5 32.8,-15.8 45.9,-25.7 9,-2.2 42.8,-20.7 48,-60.5 3.4,-9.8 7.4,-18.7 9.7,-31.1 35.4,-39.6 12.7,-88.3 -12.5,-103.4 z m -19.5,-7 c -1.3,16.4 -86.9,-57.2 -72.1,-59.7 40.1,-6.6 73.4,16.9 72.1,59.7 z m -37.8,81.8 c -21.5,13.9 -52.5,4.9 -69.2,-20 -16.7,-25 -12.8,-56.4 8.7,-70.3 21.5,-13.9 52.5,-4.9 69.2,20 16.7,24.9 12.8,56.4 -8.7,70.3 z M 287.1,56.9 c 0.7,3.7 1.6,6 2.5,6.7 4.7,-5.1 8.6,-10.3 14.8,-15.2 0,2.9 -1.5,6 2.2,8.3 3.3,-4.4 7.7,-8.3 13.6,-11.7 -2.8,4.9 -0.5,6.4 1.1,8.4 4.5,-3.9 8.8,-7.7 17,-10.8 -2.3,2.7 -5.4,5.4 -2.1,8.6 4.7,-2.9 9.3,-5.8 20.3,-7.8 -2.5,2.7 -7.6,5.5 -4.5,8.3 5.8,-2.2 12.3,-3.9 19.4,-4.7 -3.4,2.8 -6.2,5.5 -3.4,7.7 6.2,-1.9 14.8,-4.5 23.2,-2.3 l -5.3,5.4 c -0.6,0.7 12.4,0.5 21,0.7 -3.2,4.4 -6.3,8.5 -8.2,16 0.9,0.9 5.1,0.4 9.1,0 -4.1,8.7 -11.2,10.8 -12.9,14.6 2.5,1.9 6,1.4 9.8,0.1 -3,6.1 -9.1,10.3 -14.1,15.2 1.2,0.9 3.4,1.4 8.5,0.8 -4.6,4.8 -10,9.2 -16.5,13.2 1.1,1.3 5.1,1.3 8.8,1.4 -5.9,5.7 -13.4,8.7 -20.6,12.5 3.5,2.4 6.1,1.8 8.8,1.8 -5,4.1 -13.5,6.2 -21.4,8.8 1.5,2.4 3,3 6.2,3.6 -8.3,4.7 -20.4,2.5 -23.7,4.9 0.8,2.4 3.2,3.9 5.9,5.1 -13.5,0.8 -50.3,-0.5 -57.5,-28.4 13.8,-15.2 39,-32.9 82.3,-55 -33.7,11.2 -64.1,26.4 -89.6,47 -29.9,-14.1 -9.3,-49.3 5.3,-63.2 z m -30.2,100.7 c 21.3,-0.3 47.5,15.6 47.4,30.5 -0.1,13.2 -18.5,23.8 -47.3,23.6 -28.2,-0.4 -47.2,-13.4 -47.1,-26.2 0.1,-10.5 23.1,-28.6 47,-27.9 z M 148.8,146.3 c 3.3,-0.6 4.7,-1.3 6.2,-3.6 -7.9,-2.5 -16.4,-4.7 -21.4,-8.8 2.7,0 5.3,0.6 8.8,-1.8 -7.1,-3.8 -14.7,-6.8 -20.6,-12.5 3.7,-0.1 7.6,0 8.8,-1.4 -6.5,-4 -11.9,-8.3 -16.5,-13.2 5.1,0.6 7.3,0.1 8.5,-0.8 -4.9,-4.9 -11.2,-9.1 -14.1,-15.2 3.8,1.3 7.3,1.8 9.8,-0.1 -1.7,-3.7 -8.8,-5.9 -12.9,-14.6 4,0.4 8.3,0.9 9.1,0 -1.8,-7.5 -5.1,-11.7 -8.2,-16 8.6,-0.1 21.6,0 21,-0.7 L 122,52.2 c 8.3,-2.2 17,0.4 23.2,2.3 2.8,-2.2 -0.1,-4.9 -3.4,-7.7 7.1,1 13.5,2.5 19.4,4.7 3.1,-2.7 -2,-5.5 -4.5,-8.3 11,2 15.6,4.9 20.3,7.8 3.3,-3.2 0.2,-5.9 -2.1,-8.6 8.3,3 12.6,6.9 17,10.8 1.5,-2 3.9,-3.5 1.1,-8.4 5.9,3.3 10.4,7.3 13.6,11.7 3.6,-2.3 2.2,-5.4 2.2,-8.3 6.2,4.9 10,10.1 14.8,15.2 1,-0.7 1.8,-3 2.5,-6.7 14.6,14 35.2,49.1 5.3,63.1 -25.5,-20.6 -55.9,-35.8 -89.6,-47 43.3,22 68.5,39.8 82.3,55 -7,27.9 -43.9,29.2 -57.5,28.4 2.7,-1.2 5.1,-2.8 5.9,-5.1 -3.3,-2.3 -15.3,-0.2 -23.7,-4.8 z m 52.8,21.2 c 14.8,2.5 -70.8,76 -72.1,59.7 -1.3,-42.8 32.1,-66.4 72.1,-59.7 z M 110.8,331.6 C 90,315.1 83.3,266.8 121.9,245.2 c 23.2,-6.1 7.8,94.8 -11.1,86.4 z m 79.9,86.3 c -11.7,6.9 -40.2,4.1 -60.5,-24.5 -13.6,-24.1 -11.9,-48.5 -2.3,-55.7 14.3,-8.6 36.5,3 53.5,22.5 14.9,17.6 21.7,48.6 9.3,57.7 z M 167.5,312.7 c -21.5,-13.9 -25.4,-45.3 -8.7,-70.3 16.7,-25 47.7,-33.9 69.2,-20 21.5,13.9 25.4,45.3 8.7,70.3 -16.7,25 -47.7,33.9 -69.2,20 z m 89.8,154.2 c -25.8,1.1 -51.1,-20.8 -50.8,-28.4 -0.4,-11.2 31.5,-19.9 52.1,-19.3 20.8,-0.9 48.9,6.6 48.9,16.6 0.5,9.7 -25.2,31.6 -50.2,31.1 z m 51.8,-109.7 c 0.2,26.1 -23,47.3 -51.7,47.4 -28.6,0.2 -52,-20.9 -52.2,-46.9 v -0.5 c -0.2,-26.1 23,-47.3 51.7,-47.4 28.6,-0.2 52,20.9 52.2,46.9 z m 72.2,37.5 c -22.2,30.4 -52.4,31.5 -63.5,23.1 -11.7,-10.9 -2.8,-44.7 13.3,-63.3 18.4,-20.5 38,-33.8 51.8,-23.4 9.1,9.1 14.6,43.2 -1.6,63.6 z m 20.1,-64.3 c -18.9,8.3 -34.3,-92.5 -11.1,-86.4 38.6,21.7 32,70 11.1,86.4 z"
         id="path6100"
         style="fill:#00ff00;stroke-width:12.9477" />
    </g>
    <text
       xml:space="preserve"
       transform="scale(0.26458333)"
       id="text42851"
       style="fill:black;fill-opacity:1;line-height:1.25;stroke:none;font-family:sans-serif;font-style:normal;font-weight:normal;font-size:40px;white-space:pre;shape-inside:url(#rect42853)" />
    <path
       id="rect51209"
       style="fill:#00ff00;stroke-width:0.264583"
       d="m 100.0206,8.5717361 c 1.27733,0 2.30564,0.5141548 2.30564,1.1528135 v 6.9168814 c 0,0.638659 -1.02831,1.152814 -2.30564,1.152814 -1.277309,0 -2.305619,-0.514155 -2.305619,-1.152814 V 9.7245496 c 0,-0.6386587 1.02831,-1.1528135 2.305619,-1.1528135 z" />
    <path
       id="rect51211"
       style="fill:#00ff00;stroke-width:0.264583"
       d="m 96.562171,10.877363 h 6.916879 c 0.63866,0 1.15282,1.02831 1.15282,2.305627 0,1.277318 -0.51416,2.305628 -1.15282,2.305628 h -6.916879 c -0.638659,0 -1.152813,-1.02831 -1.152813,-2.305628 0,-1.277317 0.514154,-2.305627 1.152813,-2.305627 z" />
    <path
       id="circle51213"
       style="fill:#ff0000;stroke-width:0.264583"
       d="M 99.179063,9.7245495 A 0.42654101,0.42654101 0 0 1 98.752522,10.151091 0.42654101,0.42654101 0 0 1 98.325981,9.7245495 0.42654101,0.42654101 0 0 1 98.752522,9.2980084 0.42654101,0.42654101 0 0 1 99.179063,9.7245495 Z" />
    <path
       id="circle51215"
       style="fill:#ff0000;stroke-width:0.264583"
       d="m 101.71525,16.641431 a 0.42654101,0.42654101 0 0 1 -0.42654,0.426541 0.42654101,0.42654101 0 0 1 -0.42654,-0.426541 0.42654101,0.42654101 0 0 1 0.42654,-0.426541 0.42654101,0.42654101 0 0 1 0.42654,0.426541 z" />
    <path
       id="line51217"
       style="stroke:#ffffff;stroke-width:0.264583;fill:#ff0000"
       d="m 97.714981,10.762082 h 2.305629" />
    <path
       id="line51219"
       style="stroke:#ffffff;stroke-width:0.264583;fill:#ff0000"
       d="m 100.02061,15.603899 h 2.30564" />
    <path
       d="m 97.599703,15.488617 c 0,-2.305627 0.576408,-2.305627 2.305621,-2.305627 1.959786,0 2.536196,0 2.536196,-2.305627"
       stroke="#ffffff"
       fill="none"
       id="path51221"
       style="stroke-width:0.264583;fill:#00ff00" />
  </g>
</svg>
